<?xml version="1.0" encoding="utf-8"?>
<!-- Generator: Adobe Illustrator 19.1.0, SVG Export Plug-In . SVG Version: 6.00 Build 0)  -->
<svg version="1.1" xmlns="http://www.w3.org/2000/svg" xmlns:xlink="http://www.w3.org/1999/xlink" x="0px" y="0px"
	 viewBox="0 0 291.818 79.343" style="enable-background:new 0 0 291.818 79.343;" xml:space="preserve">
<style type="text/css">
	.st0{fill:#131312;}
	.st1{fill:none;stroke:#131312;stroke-width:0.25;}
	.st2{fill:none;stroke:#006699;}
	.st3{fill:#006699;}
	.st4{fill:#FFFFFF;}
	.st5{fill:none;stroke:#FA0D0B;}
	.st6{fill:#FA0D0B;}
</style>
<g>
	<g>
		<g>
			<path d="M4.646,38.462c-0.746,0.844-1.51,1.266-2.291,1.266c-0.48,0-0.868-0.138-1.163-0.413S0.75,38.702,0.75,38.304
				c0-0.262,0.066-0.711,0.199-1.348l0.75-3.592H2.76l-0.832,3.979c-0.07,0.332-0.105,0.59-0.105,0.773
				c0,0.234,0.071,0.417,0.214,0.548s0.353,0.196,0.63,0.196c0.297,0,0.587-0.072,0.87-0.217s0.527-0.34,0.732-0.586
				s0.372-0.537,0.501-0.873c0.086-0.215,0.186-0.592,0.299-1.131l0.562-2.689h1.061l-1.301,6.223H4.412L4.646,38.462z"/>
		</g>
		<g>
			<g>
				<line class="st0" x1="1.732" y1="30.702" x2="6.315" y2="30.702"/>
				<path class="st0" d="M6.111,30.702l-0.438-0.721l0.024-0.016l1.175,0.467c0.409,0.09,0.819,0.18,1.228,0.27
					c-0.409,0.09-0.819,0.18-1.228,0.271l-1.175,0.466l-0.024-0.012L6.111,30.702z"/>
			</g>
			<g>
				<line class="st1" x1="1.732" y1="30.702" x2="6.315" y2="30.702"/>
				<path class="st0" d="M6.264,30.702l-0.11-0.18l0.006-0.004l0.293,0.117c0.102,0.023,0.205,0.045,0.307,0.067
					c-0.102,0.023-0.205,0.045-0.307,0.067l-0.293,0.117l-0.006-0.003L6.264,30.702z"/>
			</g>
		</g>
	</g>
	<g>
		<line class="st2" x1="3.09" y1="61.545" x2="17.852" y2="17.625"/>
		<path class="st3" d="M17.717,18.024l-1.605,0.003l-0.014-0.067l1.627-1.749c0.434-0.695,0.868-1.391,1.303-2.086
			c-0.105,0.909-0.21,1.818-0.315,2.728l0.08,2.856l-0.038,0.034L17.717,18.024z"/>
	</g>
	<g>
		<g>
			<path class="st4" d="M97.036,15.396l-1.769-1.147l0.038-0.064l3.153-0.225c1.02-0.242,2.04-0.484,3.059-0.725
				c-0.824,0.648-1.648,1.294-2.472,1.942l-2.139,2.327l-0.069-0.001L97.036,15.396z"/>
		</g>
		<g>
			<line class="st2" x1="2.999" y1="60.744" x2="97.496" y2="15.174"/>
			<path class="st3" d="M97.036,15.396l-1.769-1.147l0.038-0.064l3.153-0.225c1.02-0.242,2.04-0.484,3.059-0.725
				c-0.824,0.648-1.648,1.294-2.472,1.942l-2.139,2.327l-0.069-0.001L97.036,15.396z"/>
		</g>
	</g>
	<g>
		<path d="M51.797,50.629l-1.02-6.223h1.031l0.533,3.428c0.059,0.375,0.131,0.986,0.217,1.834c0.203-0.441,0.463-0.947,0.779-1.518
			l2.08-3.744h1.119l-3.562,6.223H51.797z"/>
	</g>
	<g>
		<path d="M55.082,10.295l-0.65-6.223h1.02l0.281,2.795l0.111,1.57c0.008,0.117,0.02,0.354,0.035,0.709
			c0.117-0.398,0.217-0.704,0.299-0.917s0.213-0.517,0.393-0.911l1.482-3.246h1.154l0.205,3.111
			c0.031,0.473,0.051,1.104,0.059,1.893c0.195-0.523,0.514-1.25,0.955-2.18l1.336-2.824h1.061l-3.041,6.223h-1.102l-0.234-3.65
			c-0.016-0.227-0.027-0.668-0.035-1.324c-0.16,0.418-0.35,0.869-0.568,1.354l-1.646,3.621H55.082z"/>
	</g>
	<g>
		<g>
			<line class="st0" x1="50.898" y1="41.577" x2="55.481" y2="41.577"/>
			<path class="st0" d="M55.277,41.577l-0.438-0.721l0.024-0.016l1.175,0.467c0.409,0.09,0.819,0.18,1.228,0.27
				c-0.409,0.09-0.819,0.18-1.228,0.271l-1.175,0.466l-0.024-0.012L55.277,41.577z"/>
		</g>
		<g>
			<line class="st1" x1="50.898" y1="41.577" x2="55.481" y2="41.577"/>
			<path class="st0" d="M55.431,41.577l-0.11-0.18l0.006-0.004l0.293,0.117c0.103,0.022,0.205,0.045,0.307,0.067
				c-0.102,0.023-0.205,0.045-0.307,0.067l-0.293,0.117l-0.006-0.003L55.431,41.577z"/>
		</g>
	</g>
	<g>
		<g>
			<line class="st0" x1="55.325" y1="1.244" x2="61.053" y2="1.244"/>
			<path class="st0" d="M60.849,1.244l-0.438-0.721l0.024-0.016l1.175,0.467c0.409,0.09,0.819,0.18,1.228,0.27
				c-0.409,0.09-0.819,0.18-1.228,0.27L60.436,1.98l-0.024-0.012L60.849,1.244z"/>
		</g>
		<g>
			<line class="st1" x1="55.325" y1="1.244" x2="61.053" y2="1.244"/>
			<path class="st0" d="M61.002,1.244l-0.11-0.18l0.006-0.004l0.293,0.117c0.103,0.022,0.205,0.045,0.307,0.067
				c-0.102,0.022-0.205,0.045-0.307,0.067l-0.293,0.117l-0.006-0.003L61.002,1.244z"/>
		</g>
	</g>
	<g>
		<g>
			<path class="st4" d="M23.083,14.359l1.099,1.799L24.12,16.2l-2.939-1.161c-1.024-0.223-2.048-0.446-3.072-0.67
				c1.023-0.227,2.046-0.454,3.069-0.681l2.936-1.172l0.061,0.031L23.083,14.359z"/>
		</g>
		<g>
			<line class="st5" x1="99.165" y1="14.214" x2="22.573" y2="14.36"/>
			<path class="st6" d="M23.083,14.359l1.099,1.799L24.12,16.2l-2.939-1.161c-1.024-0.223-2.048-0.446-3.072-0.67
				c1.023-0.227,2.046-0.454,3.069-0.681l2.936-1.172l0.061,0.031L23.083,14.359z"/>
		</g>
	</g>
</g>
<g>
	<g>
		<g>
			<path d="M209.948,37.28c-0.746,0.844-1.51,1.266-2.291,1.266c-0.48,0-0.868-0.138-1.163-0.413s-0.442-0.612-0.442-1.011
				c0-0.262,0.066-0.711,0.199-1.348l0.75-3.592h1.061l-0.832,3.979c-0.07,0.332-0.105,0.59-0.105,0.773
				c0,0.234,0.071,0.417,0.214,0.548s0.353,0.196,0.63,0.196c0.297,0,0.587-0.072,0.87-0.217s0.527-0.34,0.732-0.586
				s0.372-0.537,0.501-0.873c0.086-0.215,0.186-0.592,0.299-1.131l0.562-2.689h1.061l-1.301,6.223h-0.979L209.948,37.28z"/>
		</g>
		<g>
			<g>
				<line class="st0" x1="207.034" y1="29.52" x2="211.616" y2="29.52"/>
				<path class="st0" d="M211.413,29.52l-0.439-0.721l0.024-0.016l1.176,0.467c0.408,0.09,0.818,0.18,1.227,0.27
					c-0.409,0.09-0.819,0.18-1.227,0.271l-1.176,0.466l-0.024-0.012L211.413,29.52z"/>
			</g>
			<g>
				<line class="st1" x1="207.034" y1="29.52" x2="211.616" y2="29.52"/>
				<path class="st0" d="M211.565,29.52l-0.109-0.18l0.006-0.004l0.294,0.117c0.103,0.022,0.205,0.045,0.308,0.067
					c-0.103,0.022-0.205,0.045-0.308,0.067l-0.294,0.117l-0.006-0.003L211.565,29.52z"/>
			</g>
		</g>
	</g>
	<g>
		<line class="st2" x1="193.059" y1="61.697" x2="207.82" y2="17.776"/>
		<path class="st3" d="M207.686,18.176l-1.605,0.003l-0.014-0.067l1.627-1.749c0.435-0.695,0.868-1.391,1.303-2.086
			c-0.104,0.909-0.21,1.818-0.315,2.727l0.08,2.857l-0.038,0.033L207.686,18.176z"/>
	</g>
	<g>
		<g>
			<path class="st4" d="M287.338,15.88l-1.769-1.147l0.037-0.063l3.152-0.225c1.02-0.242,2.04-0.483,3.059-0.725
				c-0.824,0.647-1.648,1.294-2.473,1.942l-2.139,2.327l-0.069-0.001L287.338,15.88z"/>
		</g>
		<g>
			<line class="st2" x1="193.301" y1="61.228" x2="287.798" y2="15.659"/>
			<path class="st3" d="M287.338,15.88l-1.769-1.147l0.037-0.063l3.152-0.225c1.02-0.242,2.04-0.483,3.059-0.725
				c-0.824,0.647-1.648,1.294-2.473,1.942l-2.139,2.327l-0.069-0.001L287.338,15.88z"/>
		</g>
	</g>
	<g>
		<path d="M151.716,75.447l-0.65-6.223h1.02l0.281,2.795l0.111,1.57c0.008,0.117,0.02,0.354,0.035,0.709
			c0.117-0.398,0.217-0.704,0.299-0.917s0.213-0.517,0.393-0.911l1.482-3.246h1.154l0.205,3.111
			c0.031,0.473,0.051,1.104,0.059,1.893c0.195-0.523,0.514-1.25,0.955-2.18l1.336-2.824h1.061l-3.041,6.223h-1.102l-0.234-3.65
			c-0.016-0.227-0.027-0.668-0.035-1.324c-0.16,0.418-0.35,0.869-0.568,1.354l-1.646,3.621H151.716z"/>
	</g>
	<g>
		<g>
			<path d="M252.1,44.781l-1.02-6.223h1.031l0.533,3.428c0.059,0.375,0.131,0.986,0.217,1.834c0.203-0.441,0.463-0.947,0.779-1.518
				l2.08-3.744h1.119l-3.562,6.223H252.1z"/>
		</g>
		<g>
			<g>
				<line class="st0" x1="251.2" y1="35.729" x2="255.784" y2="35.729"/>
				<path class="st0" d="M255.579,35.729l-0.438-0.721l0.024-0.016l1.175,0.467c0.41,0.09,0.819,0.18,1.228,0.27
					c-0.409,0.09-0.818,0.18-1.228,0.271l-1.175,0.466l-0.024-0.012L255.579,35.729z"/>
			</g>
			<g>
				<line class="st1" x1="251.2" y1="35.729" x2="255.784" y2="35.729"/>
				<path class="st0" d="M255.733,35.729l-0.11-0.18l0.007-0.004l0.293,0.117c0.103,0.022,0.205,0.045,0.307,0.067
					c-0.102,0.022-0.204,0.045-0.307,0.067l-0.293,0.117l-0.007-0.003L255.733,35.729z"/>
			</g>
		</g>
	</g>
	<g>
		<g>
			<line class="st0" x1="151.96" y1="66.395" x2="157.689" y2="66.395"/>
			<path class="st0" d="M157.483,66.395l-0.438-0.721l0.024-0.016l1.175,0.467c0.41,0.09,0.819,0.18,1.229,0.27
				c-0.409,0.09-0.818,0.18-1.229,0.271l-1.175,0.466l-0.024-0.012L157.483,66.395z"/>
		</g>
		<g>
			<line class="st1" x1="151.96" y1="66.395" x2="157.689" y2="66.395"/>
			<path class="st0" d="M157.638,66.395l-0.11-0.18l0.007-0.004l0.293,0.117c0.103,0.022,0.205,0.045,0.307,0.067
				c-0.102,0.022-0.204,0.045-0.307,0.067l-0.293,0.117l-0.007-0.003L157.638,66.395z"/>
		</g>
	</g>
	<g>
		<g>
			<path class="st4" d="M116.385,61.177l1.099,1.799l-0.062,0.041l-2.939-1.161c-1.024-0.223-2.048-0.446-3.072-0.67
				c1.023-0.227,2.046-0.454,3.069-0.681l2.936-1.172l0.061,0.031L116.385,61.177z"/>
		</g>
		<g>
			<line class="st5" x1="192.466" y1="61.032" x2="115.875" y2="61.178"/>
			<path class="st6" d="M116.385,61.177l1.099,1.799l-0.062,0.041l-2.939-1.161c-1.024-0.223-2.048-0.446-3.072-0.67
				c1.023-0.227,2.046-0.454,3.069-0.681l2.936-1.172l0.061,0.031L116.385,61.177z"/>
		</g>
	</g>
	<g>
		<g>
			<path class="st4" d="M115.003,59.626l1.764,1.155l-0.038,0.063l-3.154,0.211c-1.021,0.237-2.042,0.475-3.062,0.712
				c0.827-0.644,1.654-1.288,2.48-1.931l2.149-2.318l0.069,0.001L115.003,59.626z"/>
		</g>
		<g>
			<line class="st2" x1="208.706" y1="14.944" x2="114.543" y2="59.846"/>
			<path class="st3" d="M115.003,59.626l1.764,1.155l-0.038,0.063l-3.154,0.211c-1.021,0.237-2.042,0.475-3.062,0.712
				c0.827-0.644,1.654-1.288,2.48-1.931l2.149-2.318l0.069,0.001L115.003,59.626z"/>
		</g>
	</g>
	<g>
		<path d="M157.024,28.536l0.223-1.061h3.234l-0.217,1.061H157.024z"/>
		<path d="M165.767,31.114l-1.02-6.223h1.031l0.533,3.428c0.059,0.375,0.131,0.986,0.217,1.834c0.203-0.441,0.463-0.947,0.779-1.518
			l2.08-3.744h1.119l-3.562,6.223H165.767z"/>
	</g>
	<g>
		<g>
			<line class="st0" x1="164.87" y1="22.729" x2="169.454" y2="22.729"/>
			<path class="st0" d="M169.249,22.729l-0.438-0.721l0.024-0.016l1.175,0.467c0.41,0.09,0.819,0.18,1.229,0.27
				c-0.409,0.09-0.818,0.18-1.229,0.271l-1.175,0.466l-0.024-0.012L169.249,22.729z"/>
		</g>
		<g>
			<line class="st1" x1="164.87" y1="22.729" x2="169.454" y2="22.729"/>
			<path class="st0" d="M169.403,22.729l-0.11-0.18l0.007-0.004l0.293,0.117c0.102,0.022,0.205,0.045,0.307,0.067
				c-0.102,0.023-0.204,0.045-0.307,0.067l-0.293,0.117l-0.007-0.003L169.403,22.729z"/>
		</g>
	</g>
</g>
</svg>
